#N canvas 1358 -8 1904 986 10;
#X obj 110 50 f;
#X obj 111 106 hradio 50 0 0 20 clicks empty timeline -81 22 0 14 -262144
-131089 -1 1;
#X obj 157 52 + 1;
#X obj 112 -12 tgl 25 0 empty empty empty 17 7 0 10 -262144 -1 -1 1
1;
#N canvas 0 0 450 300 (subpatch) 0;
#X array ch1 20 float 23 black black;
#A 0 1 0 1 0 1 0 1 0 0 0 0 0 1 0 0 1 0 0 0 1;
#X coords 0 1 20 0 1000 30 1;
#X restore 110 170 graph;
#N canvas 0 0 450 300 (subpatch) 0;
#X array ch2 20 float 23 black black;
#A 0 1 0 1 0 1 0 1 1 1 1 1 1 1 0 0 1 0 0 0 1;
#X coords 0 1 20 0 1000 30 1;
#X restore 112 214 graph;
#N canvas 0 0 450 300 (subpatch) 0;
#X array ch3 20 float 23 black black;
#A 0 0 1 0 1 0 1 0 1 0 1 0 0 0 0 1 1 1 0 0 0;
#X coords 0 1 20 0 1000 30 1;
#X restore 112 261 graph;
#N canvas 0 0 450 300 (subpatch) 0;
#X array ch4 20 float 23 black black;
#A 0 1 1 0 0 1 1 0 1 1 1 1 1 0 0 1 0 1 0 0 1;
#X coords 0 1 20 0 1000 30 1;
#X restore 114 308 graph;
#X obj 628 35 import mrpeach;
#X floatatom 169 -2 14 0 0 0 - - -, f 14;
#X obj 763 69 print;
#X obj 806 48 mrpeach/packOSC;
#N canvas 442 179 450 300 o.io.slipserial 0;
#X obj 73 221 mrpeach/slipdec 65536;
#X obj 73 89 mrpeach/slipenc 65536;
#X obj 337 62 loadbang;
#X obj 73 64 inlet;
#X obj 73 248 outlet;
#X msg 337 125 baud 115200;
#X obj 239 88 inlet;
#X msg 296 88 devicename /dev/tty.usbserial-A5002rKU \, pollintervall
1;
#X obj 73 177 comport;
#X obj 112 199 print errors;
#X connect 0 0 4 0;
#X connect 1 0 8 0;
#X connect 2 0 7 0;
#X connect 2 0 5 0;
#X connect 3 0 1 0;
#X connect 5 0 8 0;
#X connect 6 0 8 0;
#X connect 7 0 8 0;
#X connect 8 0 0 0;
#X connect 8 1 9 0;
#X restore 806 69 pd o.io.slipserial;
#X obj 760 -26 tgl 15 0 empty empty empty 17 7 0 10 -262144 -1 -1 0
1;
#X msg 912 20 devices;
#X msg 923 42 close;
#X msg 762 0 /ch1 \$1;
#X obj 807 15 r oscMsg;
#X text 917 -40 install purr-data \; upload firmare to arduino set
\; comport (COM6 \, COM7 \, etc) \; idiot.io;
#X msg 926 69 devicename com4 \, baud 115200;
#N canvas 0 0 450 300 (subpatch) 0;
#X array ch5 20 float 23 black black;
#A 0 1 1 0 0 1 1 0 1 1 0 0 0 1 1 0 0 1 0 0 0;
#X coords 0 1 20 0 1000 30 1;
#X restore 114 356 graph;
#X obj 111 73 mod 20;
#X msg 512 949 clear;
#X obj 16 948 qlist, f 79;
#X obj 23 707 bng 46 250 50 0 empty empty empty 17 7 0 10 -262144 -1
-1;
#N canvas 599 297 450 346 dumpTable 1;
#X obj 158 72 inlet;
#X obj 158 243 outlet;
#X obj 201 135 until;
#X obj 201 165 f;
#X obj 229 165 + 1;
#X obj 245 135 0;
#X msg 203 215 add2 \$1;
#X obj 158 104 t b a b, f 15;
#X obj 302 73 inlet;
#X obj 202 190 tabread;
#X text 155 45 size;
#X text 301 47 table id;
#X msg 158 215 add;
#X connect 0 0 7 0;
#X connect 2 0 3 0;
#X connect 3 0 4 0;
#X connect 3 0 9 0;
#X connect 4 0 3 1;
#X connect 5 0 3 1;
#X connect 6 0 1 0;
#X connect 7 0 12 0;
#X connect 7 1 2 0;
#X connect 7 2 5 0;
#X connect 8 0 9 0;
#X connect 9 0 6 0;
#X connect 12 0 1 0;
#X restore 32 877 pd dumpTable;
#X msg 31 845 20;
#N canvas 0 133 450 346 dumpTable 0;
#X obj 158 72 inlet;
#X obj 158 243 outlet;
#X obj 201 135 until;
#X obj 201 165 f;
#X obj 229 165 + 1;
#X obj 245 135 0;
#X msg 203 215 add2 \$1;
#X obj 158 104 t b a b, f 15;
#X obj 302 73 inlet;
#X obj 202 190 tabread;
#X text 155 45 size;
#X text 301 47 table id;
#X msg 158 215 add;
#X connect 0 0 7 0;
#X connect 2 0 3 0;
#X connect 3 0 4 0;
#X connect 3 0 9 0;
#X connect 4 0 3 1;
#X connect 5 0 3 1;
#X connect 6 0 1 0;
#X connect 7 0 12 0;
#X connect 7 1 2 0;
#X connect 7 2 5 0;
#X connect 8 0 9 0;
#X connect 9 0 6 0;
#X connect 12 0 1 0;
#X restore 147 876 pd dumpTable;
#X msg 146 844 20;
#N canvas 0 133 450 346 dumpTable 0;
#X obj 158 72 inlet;
#X obj 158 243 outlet;
#X obj 201 135 until;
#X obj 201 165 f;
#X obj 229 165 + 1;
#X obj 245 135 0;
#X msg 203 215 add2 \$1;
#X obj 158 104 t b a b, f 15;
#X obj 302 73 inlet;
#X obj 202 190 tabread;
#X text 155 45 size;
#X text 301 47 table id;
#X msg 158 215 add;
#X connect 0 0 7 0;
#X connect 2 0 3 0;
#X connect 3 0 4 0;
#X connect 3 0 9 0;
#X connect 4 0 3 1;
#X connect 5 0 3 1;
#X connect 6 0 1 0;
#X connect 7 0 12 0;
#X connect 7 1 2 0;
#X connect 7 2 5 0;
#X connect 8 0 9 0;
#X connect 9 0 6 0;
#X connect 12 0 1 0;
#X restore 259 878 pd dumpTable;
#X msg 258 846 20;
#N canvas 0 133 450 346 dumpTable 0;
#X obj 158 72 inlet;
#X obj 158 243 outlet;
#X obj 201 135 until;
#X obj 201 165 f;
#X obj 229 165 + 1;
#X obj 245 135 0;
#X msg 203 215 add2 \$1;
#X obj 158 104 t b a b, f 15;
#X obj 302 73 inlet;
#X obj 202 190 tabread;
#X text 155 45 size;
#X text 301 47 table id;
#X msg 158 215 add;
#X connect 0 0 7 0;
#X connect 2 0 3 0;
#X connect 3 0 4 0;
#X connect 3 0 9 0;
#X connect 4 0 3 1;
#X connect 5 0 3 1;
#X connect 6 0 1 0;
#X connect 7 0 12 0;
#X connect 7 1 2 0;
#X connect 7 2 5 0;
#X connect 8 0 9 0;
#X connect 9 0 6 0;
#X connect 12 0 1 0;
#X restore 352 878 pd dumpTable;
#X msg 351 846 20;
#X msg 383 847 set ch1;
#X obj 32 823 t b b;
#X obj 146 822 t b b;
#X obj 259 825 t b b;
#X obj 350 825 t b b;
#X msg 20 907 write temp.txt;
#N canvas 0 0 450 300 (subpatch) 0;
#X array ch6 20 float 23 black black;
#A 0 1 0 1 0 1 0 1 0 1 0 0 0 1 0 0 1 0 1 0 0;
#X coords 0 1 20 0 1000 30 1;
#X restore 113 403 graph;
#N canvas 0 0 450 300 (subpatch) 0;
#X array ch7 20 float 23 black black;
#A 0 1 0 1 0 1 0 1 1 1 1 1 1 1 0 0 1 0 0 0 0;
#X coords 0 1 20 0 1000 30 1;
#X restore 114 448 graph;
#N canvas 0 0 450 300 (subpatch) 0;
#X array ch8 20 float 23 black black;
#A 0 0 1 0 1 0 1 0 1 0 1 0 1 0 0 1 1 1 0 0 0;
#X coords 0 1 20 0 1000 30 1;
#X restore 113 494 graph;
#N canvas 0 0 450 300 (subpatch) 0;
#X array ch9 20 float 23 black black;
#A 0 1 1 0 0 1 1 0 1 1 0 0 1 0 0 1 0 1 0 0 1;
#X coords 0 1 20 0 1000 30 1;
#X restore 113 538 graph;
#N canvas 0 0 450 300 (subpatch) 0;
#X array ch10 20 float 23 black black;
#A 0 1 1 0 0 1 0.984848 0 1 1 0 0 0 1 1 0 0 1 0 0 0;
#X coords 0 1 20 0 1000 30 1;
#X restore 113 583 graph;
#N canvas 0 0 450 300 (subpatch) 0;
#X array ch11 20 float 23 black black;
#A 0 0 1 0 1 0 1 0 1 0 1 0 0 0 0 1 1 1 0 0 0;
#X coords 0 1 20 0 1000 30 1;
#X restore 113 628 graph;
#N canvas 0 0 450 300 (subpatch) 0;
#X array ch12 20 float 23 black black;
#A 0 1 1 0 0 1 1 0 1 1 0 0 1 0 0 1 0 1 0 0 0;
#X coords 0 1 20 0 1000 30 1;
#X restore 113 673 graph;
#N canvas 0 0 450 300 (subpatch) 0;
#X array ch13 20 float 23 black black;
#A 0 1 1 0 0 1 1 0 1 1 0 1 0 1 1 0 0 1 0 0 0;
#X coords 0 1 20 0 1000 30 1;
#X restore 114 718 graph;
#N canvas 0 133 450 346 dumpTable 0;
#X obj 158 72 inlet;
#X obj 158 243 outlet;
#X obj 201 135 until;
#X obj 201 165 f;
#X obj 229 165 + 1;
#X obj 245 135 0;
#X msg 203 215 add2 \$1;
#X obj 158 104 t b a b, f 15;
#X obj 302 73 inlet;
#X obj 202 190 tabread;
#X text 155 45 size;
#X text 301 47 table id;
#X msg 158 215 add;
#X connect 0 0 7 0;
#X connect 2 0 3 0;
#X connect 3 0 4 0;
#X connect 3 0 9 0;
#X connect 4 0 3 1;
#X connect 5 0 3 1;
#X connect 6 0 1 0;
#X connect 7 0 12 0;
#X connect 7 1 2 0;
#X connect 7 2 5 0;
#X connect 8 0 9 0;
#X connect 9 0 6 0;
#X connect 12 0 1 0;
#X restore 352 878 pd dumpTable;
#X msg 351 846 20;
#X obj 350 825 t b b;
#X msg 56 850 set ch13;
#X msg 178 845 set ch12;
#X msg 290 847 set ch11;
#X msg 383 847 set ch10;
#N canvas 0 133 450 346 dumpTable 0;
#X obj 158 72 inlet;
#X obj 158 243 outlet;
#X obj 201 135 until;
#X obj 201 165 f;
#X obj 229 165 + 1;
#X obj 245 135 0;
#X msg 203 215 add2 \$1;
#X obj 158 104 t b a b, f 15;
#X obj 302 73 inlet;
#X obj 202 190 tabread;
#X text 155 45 size;
#X text 301 47 table id;
#X msg 158 215 add;
#X connect 0 0 7 0;
#X connect 2 0 3 0;
#X connect 3 0 4 0;
#X connect 3 0 9 0;
#X connect 4 0 3 1;
#X connect 5 0 3 1;
#X connect 6 0 1 0;
#X connect 7 0 12 0;
#X connect 7 1 2 0;
#X connect 7 2 5 0;
#X connect 8 0 9 0;
#X connect 9 0 6 0;
#X connect 12 0 1 0;
#X restore 447 876 pd dumpTable;
#X msg 446 844 20;
#X msg 478 845 set ch1;
#X obj 445 823 t b b;
#N canvas 0 133 450 346 dumpTable 0;
#X obj 158 72 inlet;
#X obj 158 243 outlet;
#X obj 201 135 until;
#X obj 201 165 f;
#X obj 229 165 + 1;
#X obj 245 135 0;
#X msg 203 215 add2 \$1;
#X obj 158 104 t b a b, f 15;
#X obj 302 73 inlet;
#X obj 202 190 tabread;
#X text 155 45 size;
#X text 301 47 table id;
#X msg 158 215 add;
#X connect 0 0 7 0;
#X connect 2 0 3 0;
#X connect 3 0 4 0;
#X connect 3 0 9 0;
#X connect 4 0 3 1;
#X connect 5 0 3 1;
#X connect 6 0 1 0;
#X connect 7 0 12 0;
#X connect 7 1 2 0;
#X connect 7 2 5 0;
#X connect 8 0 9 0;
#X connect 9 0 6 0;
#X connect 12 0 1 0;
#X restore 447 876 pd dumpTable;
#X msg 446 844 20;
#X obj 445 823 t b b;
#X msg 478 845 set ch9;
#N canvas 0 133 450 346 dumpTable 0;
#X obj 158 72 inlet;
#X obj 158 243 outlet;
#X obj 201 135 until;
#X obj 201 165 f;
#X obj 229 165 + 1;
#X obj 245 135 0;
#X msg 203 215 add2 \$1;
#X obj 158 104 t b a b, f 15;
#X obj 302 73 inlet;
#X obj 202 190 tabread;
#X text 155 45 size;
#X text 301 47 table id;
#X msg 158 215 add;
#X connect 0 0 7 0;
#X connect 2 0 3 0;
#X connect 3 0 4 0;
#X connect 3 0 9 0;
#X connect 4 0 3 1;
#X connect 5 0 3 1;
#X connect 6 0 1 0;
#X connect 7 0 12 0;
#X connect 7 1 2 0;
#X connect 7 2 5 0;
#X connect 8 0 9 0;
#X connect 9 0 6 0;
#X connect 12 0 1 0;
#X restore 534 877 pd dumpTable;
#X msg 533 845 20;
#X msg 565 846 set ch1;
#X obj 532 824 t b b;
#N canvas 0 133 450 346 dumpTable 0;
#X obj 158 72 inlet;
#X obj 158 243 outlet;
#X obj 201 135 until;
#X obj 201 165 f;
#X obj 229 165 + 1;
#X obj 245 135 0;
#X msg 203 215 add2 \$1;
#X obj 158 104 t b a b, f 15;
#X obj 302 73 inlet;
#X obj 202 190 tabread;
#X text 155 45 size;
#X text 301 47 table id;
#X msg 158 215 add;
#X connect 0 0 7 0;
#X connect 2 0 3 0;
#X connect 3 0 4 0;
#X connect 3 0 9 0;
#X connect 4 0 3 1;
#X connect 5 0 3 1;
#X connect 6 0 1 0;
#X connect 7 0 12 0;
#X connect 7 1 2 0;
#X connect 7 2 5 0;
#X connect 8 0 9 0;
#X connect 9 0 6 0;
#X connect 12 0 1 0;
#X restore 534 877 pd dumpTable;
#X msg 533 845 20;
#X obj 532 824 t b b;
#X msg 565 846 set ch8;
#N canvas 0 133 450 346 dumpTable 0;
#X obj 158 72 inlet;
#X obj 158 243 outlet;
#X obj 201 135 until;
#X obj 201 165 f;
#X obj 229 165 + 1;
#X obj 245 135 0;
#X msg 203 215 add2 \$1;
#X obj 158 104 t b a b, f 15;
#X obj 302 73 inlet;
#X obj 202 190 tabread;
#X text 155 45 size;
#X text 301 47 table id;
#X msg 158 215 add;
#X connect 0 0 7 0;
#X connect 2 0 3 0;
#X connect 3 0 4 0;
#X connect 3 0 9 0;
#X connect 4 0 3 1;
#X connect 5 0 3 1;
#X connect 6 0 1 0;
#X connect 7 0 12 0;
#X connect 7 1 2 0;
#X connect 7 2 5 0;
#X connect 8 0 9 0;
#X connect 9 0 6 0;
#X connect 12 0 1 0;
#X restore 619 877 pd dumpTable;
#X msg 618 845 20;
#X msg 650 846 set ch1;
#X obj 617 824 t b b;
#N canvas 0 133 450 346 dumpTable 0;
#X obj 158 72 inlet;
#X obj 158 243 outlet;
#X obj 201 135 until;
#X obj 201 165 f;
#X obj 229 165 + 1;
#X obj 245 135 0;
#X msg 203 215 add2 \$1;
#X obj 158 104 t b a b, f 15;
#X obj 302 73 inlet;
#X obj 202 190 tabread;
#X text 155 45 size;
#X text 301 47 table id;
#X msg 158 215 add;
#X connect 0 0 7 0;
#X connect 2 0 3 0;
#X connect 3 0 4 0;
#X connect 3 0 9 0;
#X connect 4 0 3 1;
#X connect 5 0 3 1;
#X connect 6 0 1 0;
#X connect 7 0 12 0;
#X connect 7 1 2 0;
#X connect 7 2 5 0;
#X connect 8 0 9 0;
#X connect 9 0 6 0;
#X connect 12 0 1 0;
#X restore 619 877 pd dumpTable;
#X msg 618 845 20;
#X obj 617 824 t b b;
#X msg 650 846 set ch7;
#N canvas 0 133 450 346 dumpTable 0;
#X obj 158 72 inlet;
#X obj 158 243 outlet;
#X obj 201 135 until;
#X obj 201 165 f;
#X obj 229 165 + 1;
#X obj 245 135 0;
#X msg 203 215 add2 \$1;
#X obj 158 104 t b a b, f 15;
#X obj 302 73 inlet;
#X obj 202 190 tabread;
#X text 155 45 size;
#X text 301 47 table id;
#X msg 158 215 add;
#X connect 0 0 7 0;
#X connect 2 0 3 0;
#X connect 3 0 4 0;
#X connect 3 0 9 0;
#X connect 4 0 3 1;
#X connect 5 0 3 1;
#X connect 6 0 1 0;
#X connect 7 0 12 0;
#X connect 7 1 2 0;
#X connect 7 2 5 0;
#X connect 8 0 9 0;
#X connect 9 0 6 0;
#X connect 12 0 1 0;
#X restore 706 878 pd dumpTable;
#X msg 705 846 20;
#X msg 737 847 set ch1;
#X obj 704 825 t b b;
#N canvas 0 133 450 346 dumpTable 0;
#X obj 158 72 inlet;
#X obj 158 243 outlet;
#X obj 201 135 until;
#X obj 201 165 f;
#X obj 229 165 + 1;
#X obj 245 135 0;
#X msg 203 215 add2 \$1;
#X obj 158 104 t b a b, f 15;
#X obj 302 73 inlet;
#X obj 202 190 tabread;
#X text 155 45 size;
#X text 301 47 table id;
#X msg 158 215 add;
#X connect 0 0 7 0;
#X connect 2 0 3 0;
#X connect 3 0 4 0;
#X connect 3 0 9 0;
#X connect 4 0 3 1;
#X connect 5 0 3 1;
#X connect 6 0 1 0;
#X connect 7 0 12 0;
#X connect 7 1 2 0;
#X connect 7 2 5 0;
#X connect 8 0 9 0;
#X connect 9 0 6 0;
#X connect 12 0 1 0;
#X restore 706 878 pd dumpTable;
#X msg 705 846 20;
#X obj 704 825 t b b;
#X msg 737 847 set ch6;
#N canvas 0 133 450 346 dumpTable 0;
#X obj 158 72 inlet;
#X obj 158 243 outlet;
#X obj 201 135 until;
#X obj 201 165 f;
#X obj 229 165 + 1;
#X obj 245 135 0;
#X msg 203 215 add2 \$1;
#X obj 158 104 t b a b, f 15;
#X obj 302 73 inlet;
#X obj 202 190 tabread;
#X text 155 45 size;
#X text 301 47 table id;
#X msg 158 215 add;
#X connect 0 0 7 0;
#X connect 2 0 3 0;
#X connect 3 0 4 0;
#X connect 3 0 9 0;
#X connect 4 0 3 1;
#X connect 5 0 3 1;
#X connect 6 0 1 0;
#X connect 7 0 12 0;
#X connect 7 1 2 0;
#X connect 7 2 5 0;
#X connect 8 0 9 0;
#X connect 9 0 6 0;
#X connect 12 0 1 0;
#X restore 798 878 pd dumpTable;
#X msg 797 846 20;
#X msg 829 847 set ch1;
#X obj 796 825 t b b;
#N canvas 0 133 450 346 dumpTable 0;
#X obj 158 72 inlet;
#X obj 158 243 outlet;
#X obj 201 135 until;
#X obj 201 165 f;
#X obj 229 165 + 1;
#X obj 245 135 0;
#X msg 203 215 add2 \$1;
#X obj 158 104 t b a b, f 15;
#X obj 302 73 inlet;
#X obj 202 190 tabread;
#X text 155 45 size;
#X text 301 47 table id;
#X msg 158 215 add;
#X connect 0 0 7 0;
#X connect 2 0 3 0;
#X connect 3 0 4 0;
#X connect 3 0 9 0;
#X connect 4 0 3 1;
#X connect 5 0 3 1;
#X connect 6 0 1 0;
#X connect 7 0 12 0;
#X connect 7 1 2 0;
#X connect 7 2 5 0;
#X connect 8 0 9 0;
#X connect 9 0 6 0;
#X connect 12 0 1 0;
#X restore 798 878 pd dumpTable;
#X msg 797 846 20;
#X obj 796 825 t b b;
#X msg 829 847 set ch5;
#N canvas 0 133 450 346 dumpTable 0;
#X obj 158 72 inlet;
#X obj 158 243 outlet;
#X obj 201 135 until;
#X obj 201 165 f;
#X obj 229 165 + 1;
#X obj 245 135 0;
#X msg 203 215 add2 \$1;
#X obj 158 104 t b a b, f 15;
#X obj 302 73 inlet;
#X obj 202 190 tabread;
#X text 155 45 size;
#X text 301 47 table id;
#X msg 158 215 add;
#X connect 0 0 7 0;
#X connect 2 0 3 0;
#X connect 3 0 4 0;
#X connect 3 0 9 0;
#X connect 4 0 3 1;
#X connect 5 0 3 1;
#X connect 6 0 1 0;
#X connect 7 0 12 0;
#X connect 7 1 2 0;
#X connect 7 2 5 0;
#X connect 8 0 9 0;
#X connect 9 0 6 0;
#X connect 12 0 1 0;
#X restore 885 878 pd dumpTable;
#X msg 884 846 20;
#X msg 916 847 set ch1;
#X obj 883 825 t b b;
#N canvas 0 133 450 346 dumpTable 0;
#X obj 158 72 inlet;
#X obj 158 243 outlet;
#X obj 201 135 until;
#X obj 201 165 f;
#X obj 229 165 + 1;
#X obj 245 135 0;
#X msg 203 215 add2 \$1;
#X obj 158 104 t b a b, f 15;
#X obj 302 73 inlet;
#X obj 202 190 tabread;
#X text 155 45 size;
#X text 301 47 table id;
#X msg 158 215 add;
#X connect 0 0 7 0;
#X connect 2 0 3 0;
#X connect 3 0 4 0;
#X connect 3 0 9 0;
#X connect 4 0 3 1;
#X connect 5 0 3 1;
#X connect 6 0 1 0;
#X connect 7 0 12 0;
#X connect 7 1 2 0;
#X connect 7 2 5 0;
#X connect 8 0 9 0;
#X connect 9 0 6 0;
#X connect 12 0 1 0;
#X restore 885 878 pd dumpTable;
#X msg 884 846 20;
#X obj 883 825 t b b;
#X msg 916 848 set ch4;
#N canvas 0 133 450 346 dumpTable 0;
#X obj 158 72 inlet;
#X obj 158 243 outlet;
#X obj 201 135 until;
#X obj 201 165 f;
#X obj 229 165 + 1;
#X obj 245 135 0;
#X msg 203 215 add2 \$1;
#X obj 158 104 t b a b, f 15;
#X obj 302 73 inlet;
#X obj 202 190 tabread;
#X text 155 45 size;
#X text 301 47 table id;
#X msg 158 215 add;
#X connect 0 0 7 0;
#X connect 2 0 3 0;
#X connect 3 0 4 0;
#X connect 3 0 9 0;
#X connect 4 0 3 1;
#X connect 5 0 3 1;
#X connect 6 0 1 0;
#X connect 7 0 12 0;
#X connect 7 1 2 0;
#X connect 7 2 5 0;
#X connect 8 0 9 0;
#X connect 9 0 6 0;
#X connect 12 0 1 0;
#X restore 971 879 pd dumpTable;
#X msg 970 847 20;
#X msg 1002 848 set ch1;
#X obj 969 826 t b b;
#N canvas 0 133 450 346 dumpTable 0;
#X obj 158 72 inlet;
#X obj 158 243 outlet;
#X obj 201 135 until;
#X obj 201 165 f;
#X obj 229 165 + 1;
#X obj 245 135 0;
#X msg 203 215 add2 \$1;
#X obj 158 104 t b a b, f 15;
#X obj 302 73 inlet;
#X obj 202 190 tabread;
#X text 155 45 size;
#X text 301 47 table id;
#X msg 158 215 add;
#X connect 0 0 7 0;
#X connect 2 0 3 0;
#X connect 3 0 4 0;
#X connect 3 0 9 0;
#X connect 4 0 3 1;
#X connect 5 0 3 1;
#X connect 6 0 1 0;
#X connect 7 0 12 0;
#X connect 7 1 2 0;
#X connect 7 2 5 0;
#X connect 8 0 9 0;
#X connect 9 0 6 0;
#X connect 12 0 1 0;
#X restore 971 879 pd dumpTable;
#X msg 970 847 20;
#X obj 969 826 t b b;
#X msg 1002 849 set ch3;
#N canvas 0 133 450 346 dumpTable 0;
#X obj 158 72 inlet;
#X obj 158 243 outlet;
#X obj 201 135 until;
#X obj 201 165 f;
#X obj 229 165 + 1;
#X obj 245 135 0;
#X msg 203 215 add2 \$1;
#X obj 158 104 t b a b, f 15;
#X obj 302 73 inlet;
#X obj 202 190 tabread;
#X text 155 45 size;
#X text 301 47 table id;
#X msg 158 215 add;
#X connect 0 0 7 0;
#X connect 2 0 3 0;
#X connect 3 0 4 0;
#X connect 3 0 9 0;
#X connect 4 0 3 1;
#X connect 5 0 3 1;
#X connect 6 0 1 0;
#X connect 7 0 12 0;
#X connect 7 1 2 0;
#X connect 7 2 5 0;
#X connect 8 0 9 0;
#X connect 9 0 6 0;
#X connect 12 0 1 0;
#X restore 1062 880 pd dumpTable;
#X msg 1061 848 20;
#X msg 1093 849 set ch1;
#X obj 1060 827 t b b;
#N canvas 0 133 450 346 dumpTable 0;
#X obj 158 72 inlet;
#X obj 158 243 outlet;
#X obj 201 135 until;
#X obj 201 165 f;
#X obj 229 165 + 1;
#X obj 245 135 0;
#X msg 203 215 add2 \$1;
#X obj 158 104 t b a b, f 15;
#X obj 302 73 inlet;
#X obj 202 190 tabread;
#X text 155 45 size;
#X text 301 47 table id;
#X msg 158 215 add;
#X connect 0 0 7 0;
#X connect 2 0 3 0;
#X connect 3 0 4 0;
#X connect 3 0 9 0;
#X connect 4 0 3 1;
#X connect 5 0 3 1;
#X connect 6 0 1 0;
#X connect 7 0 12 0;
#X connect 7 1 2 0;
#X connect 7 2 5 0;
#X connect 8 0 9 0;
#X connect 9 0 6 0;
#X connect 12 0 1 0;
#X restore 1062 880 pd dumpTable;
#X msg 1061 848 20;
#X obj 1060 827 t b b;
#X msg 1093 850 set ch2;
#N canvas 0 133 450 346 dumpTable 0;
#X obj 158 72 inlet;
#X obj 158 243 outlet;
#X obj 201 135 until;
#X obj 201 165 f;
#X obj 229 165 + 1;
#X obj 245 135 0;
#X msg 203 215 add2 \$1;
#X obj 158 104 t b a b, f 15;
#X obj 302 73 inlet;
#X obj 202 190 tabread;
#X text 155 45 size;
#X text 301 47 table id;
#X msg 158 215 add;
#X connect 0 0 7 0;
#X connect 2 0 3 0;
#X connect 3 0 4 0;
#X connect 3 0 9 0;
#X connect 4 0 3 1;
#X connect 5 0 3 1;
#X connect 6 0 1 0;
#X connect 7 0 12 0;
#X connect 7 1 2 0;
#X connect 7 2 5 0;
#X connect 8 0 9 0;
#X connect 9 0 6 0;
#X connect 12 0 1 0;
#X restore 1150 881 pd dumpTable;
#X msg 1149 849 20;
#X msg 1181 850 set ch1;
#X obj 1148 828 t b b;
#N canvas 0 133 450 346 dumpTable 0;
#X obj 158 72 inlet;
#X obj 158 243 outlet;
#X obj 201 135 until;
#X obj 201 165 f;
#X obj 229 165 + 1;
#X obj 245 135 0;
#X msg 203 215 add2 \$1;
#X obj 158 104 t b a b, f 15;
#X obj 302 73 inlet;
#X obj 202 190 tabread;
#X text 155 45 size;
#X text 301 47 table id;
#X msg 158 215 add;
#X connect 0 0 7 0;
#X connect 2 0 3 0;
#X connect 3 0 4 0;
#X connect 3 0 9 0;
#X connect 4 0 3 1;
#X connect 5 0 3 1;
#X connect 6 0 1 0;
#X connect 7 0 12 0;
#X connect 7 1 2 0;
#X connect 7 2 5 0;
#X connect 8 0 9 0;
#X connect 9 0 6 0;
#X connect 12 0 1 0;
#X restore 1150 881 pd dumpTable;
#X msg 1149 849 20;
#X obj 1148 828 t b b;
#X msg 1181 851 set ch1;
#X obj 23 766 t b b b b b b b b b b b b b b b, f 77;
#X obj 112 26 metro 1000;
#X text 80 -7 PLAY;
#X text 11 681 SAVE temp.txt;
#N canvas 124 121 693 500 13ch 1;
#X floatatom 41 -252 5 0 0 0 - - -, f 5;
#X obj 45 -140 sel 0;
#X msg 72 -117 1;
#X floatatom 45 -85 5 0 0 0 - - -, f 5;
#X msg 42 -118 0;
#X obj 45 -160 tabread ch1;
#X obj 120 -141 sel 0;
#X msg 147 -118 1;
#X floatatom 120 -86 5 0 0 0 - - -, f 5;
#X msg 117 -119 0;
#X obj 196 -140 sel 0;
#X msg 223 -117 1;
#X floatatom 196 -85 5 0 0 0 - - -, f 5;
#X msg 193 -118 0;
#X obj 275 -141 sel 0;
#X msg 302 -118 1;
#X floatatom 275 -86 5 0 0 0 - - -, f 5;
#X msg 272 -119 0;
#X obj 120 -161 tabread ch2;
#X obj 196 -160 tabread ch3;
#X obj 275 -161 tabread ch4;
#X obj 41 -279 r clicks;
#X msg 43 -49 /ch1 \$1;
#X obj 43 67 s oscMsg;
#X msg 272 -49 /ch4 \$1;
#X msg 116 -50 /ch2 \$1;
#X msg 195 -50 /ch3 \$1;
#X obj 356 -140 sel 0;
#X msg 383 -117 1;
#X floatatom 356 -85 5 0 0 0 - - -, f 5;
#X msg 353 -118 0;
#X obj 356 -160 tabread ch5;
#X msg 353 -48 /ch5 \$1;
#X obj 436 -140 sel 0;
#X msg 463 -117 1;
#X floatatom 436 -85 5 0 0 0 - - -, f 5;
#X msg 433 -118 0;
#X obj 436 -160 tabread ch6;
#X msg 433 -48 /ch6 \$1;
#X obj 514 -142 sel 0;
#X msg 541 -119 1;
#X floatatom 514 -87 5 0 0 0 - - -, f 5;
#X msg 511 -120 0;
#X obj 589 -143 sel 0;
#X msg 616 -120 1;
#X floatatom 589 -88 5 0 0 0 - - -, f 5;
#X msg 586 -121 0;
#X obj 665 -142 sel 0;
#X msg 692 -119 1;
#X floatatom 665 -87 5 0 0 0 - - -, f 5;
#X msg 662 -120 0;
#X obj 744 -143 sel 0;
#X msg 771 -120 1;
#X floatatom 744 -88 5 0 0 0 - - -, f 5;
#X msg 741 -121 0;
#X obj 825 -142 sel 0;
#X msg 852 -119 1;
#X floatatom 825 -87 5 0 0 0 - - -, f 5;
#X msg 822 -120 0;
#X obj 905 -142 sel 0;
#X msg 932 -119 1;
#X floatatom 905 -87 5 0 0 0 - - -, f 5;
#X msg 902 -120 0;
#X obj 514 -162 tabread ch7;
#X msg 512 -52 /ch7 \$1;
#X obj 589 -163 tabread ch8;
#X msg 585 -52 /ch8 \$1;
#X obj 665 -162 tabread ch9;
#X msg 664 -52 /ch9 \$1;
#X obj 744 -163 tabread ch10;
#X msg 741 -51 /ch10 \$1;
#X obj 825 -162 tabread ch11;
#X msg 822 -50 /ch11 \$1;
#X obj 905 -162 tabread ch12;
#X msg 902 -50 /ch12 \$1;
#X obj 991 -139 sel 0;
#X msg 1018 -116 1;
#X floatatom 991 -84 5 0 0 0 - - -, f 5;
#X msg 988 -117 0;
#X obj 991 -159 tabread ch13;
#X msg 988 -47 /ch13 \$1;
#X connect 0 0 5 0;
#X connect 0 0 18 0;
#X connect 0 0 19 0;
#X connect 0 0 20 0;
#X connect 0 0 31 0;
#X connect 0 0 37 0;
#X connect 0 0 63 0;
#X connect 0 0 65 0;
#X connect 0 0 67 0;
#X connect 0 0 69 0;
#X connect 0 0 71 0;
#X connect 0 0 73 0;
#X connect 0 0 79 0;
#X connect 1 0 4 0;
#X connect 1 1 2 0;
#X connect 2 0 3 0;
#X connect 3 0 22 0;
#X connect 4 0 3 0;
#X connect 5 0 1 0;
#X connect 6 0 9 0;
#X connect 6 1 7 0;
#X connect 7 0 8 0;
#X connect 8 0 25 0;
#X connect 9 0 8 0;
#X connect 10 0 13 0;
#X connect 10 1 11 0;
#X connect 11 0 12 0;
#X connect 12 0 26 0;
#X connect 13 0 12 0;
#X connect 14 0 17 0;
#X connect 14 1 15 0;
#X connect 15 0 16 0;
#X connect 16 0 24 0;
#X connect 17 0 16 0;
#X connect 18 0 6 0;
#X connect 19 0 10 0;
#X connect 20 0 14 0;
#X connect 21 0 0 0;
#X connect 22 0 23 0;
#X connect 24 0 23 0;
#X connect 25 0 23 0;
#X connect 26 0 23 0;
#X connect 27 0 30 0;
#X connect 27 1 28 0;
#X connect 28 0 29 0;
#X connect 29 0 32 0;
#X connect 30 0 29 0;
#X connect 31 0 27 0;
#X connect 32 0 23 0;
#X connect 33 0 36 0;
#X connect 33 1 34 0;
#X connect 34 0 35 0;
#X connect 35 0 38 0;
#X connect 36 0 35 0;
#X connect 37 0 33 0;
#X connect 38 0 23 0;
#X connect 39 0 42 0;
#X connect 39 1 40 0;
#X connect 40 0 41 0;
#X connect 41 0 64 0;
#X connect 42 0 41 0;
#X connect 43 0 46 0;
#X connect 43 1 44 0;
#X connect 44 0 45 0;
#X connect 45 0 66 0;
#X connect 46 0 45 0;
#X connect 47 0 50 0;
#X connect 47 1 48 0;
#X connect 48 0 49 0;
#X connect 49 0 68 0;
#X connect 50 0 49 0;
#X connect 51 0 54 0;
#X connect 51 1 52 0;
#X connect 52 0 53 0;
#X connect 53 0 70 0;
#X connect 54 0 53 0;
#X connect 55 0 58 0;
#X connect 55 1 56 0;
#X connect 56 0 57 0;
#X connect 57 0 72 0;
#X connect 58 0 57 0;
#X connect 59 0 62 0;
#X connect 59 1 60 0;
#X connect 60 0 61 0;
#X connect 61 0 74 0;
#X connect 62 0 61 0;
#X connect 63 0 39 0;
#X connect 64 0 23 0;
#X connect 65 0 43 0;
#X connect 66 0 23 0;
#X connect 67 0 47 0;
#X connect 68 0 23 0;
#X connect 69 0 51 0;
#X connect 70 0 23 0;
#X connect 71 0 55 0;
#X connect 72 0 23 0;
#X connect 73 0 59 0;
#X connect 74 0 23 0;
#X connect 75 0 78 0;
#X connect 75 1 76 0;
#X connect 76 0 77 0;
#X connect 77 0 80 0;
#X connect 78 0 77 0;
#X connect 79 0 75 0;
#X connect 80 0 23 0;
#X restore 628 60 pd 13ch;
#X connect 0 0 2 0;
#X connect 0 0 21 0;
#X connect 2 0 0 1;
#X connect 3 0 127 0;
#X connect 9 0 127 1;
#X connect 11 0 12 0;
#X connect 13 0 16 0;
#X connect 14 0 12 1;
#X connect 15 0 12 1;
#X connect 16 0 11 0;
#X connect 16 0 10 0;
#X connect 17 0 11 0;
#X connect 19 0 12 1;
#X connect 21 0 1 0;
#X connect 22 0 23 0;
#X connect 24 0 126 0;
#X connect 25 0 23 0;
#X connect 26 0 25 0;
#X connect 27 0 23 0;
#X connect 28 0 27 0;
#X connect 29 0 23 0;
#X connect 30 0 29 0;
#X connect 31 0 23 0;
#X connect 32 0 31 0;
#X connect 33 0 31 1;
#X connect 34 0 26 0;
#X connect 34 1 50 0;
#X connect 35 0 28 0;
#X connect 35 1 51 0;
#X connect 36 0 30 0;
#X connect 36 1 52 0;
#X connect 37 0 32 0;
#X connect 37 1 33 0;
#X connect 38 0 23 0;
#X connect 48 0 47 0;
#X connect 49 0 48 0;
#X connect 49 1 53 0;
#X connect 50 0 25 1;
#X connect 51 0 27 1;
#X connect 52 0 29 1;
#X connect 53 0 47 1;
#X connect 55 0 54 0;
#X connect 56 0 54 1;
#X connect 57 0 55 0;
#X connect 57 1 56 0;
#X connect 58 0 23 0;
#X connect 59 0 58 0;
#X connect 60 0 59 0;
#X connect 60 1 61 0;
#X connect 61 0 58 1;
#X connect 63 0 62 0;
#X connect 64 0 62 1;
#X connect 65 0 63 0;
#X connect 65 1 64 0;
#X connect 66 0 23 0;
#X connect 67 0 66 0;
#X connect 68 0 67 0;
#X connect 68 1 69 0;
#X connect 69 0 66 1;
#X connect 71 0 70 0;
#X connect 72 0 70 1;
#X connect 73 0 71 0;
#X connect 73 1 72 0;
#X connect 74 0 23 0;
#X connect 75 0 74 0;
#X connect 76 0 75 0;
#X connect 76 1 77 0;
#X connect 77 0 74 1;
#X connect 79 0 78 0;
#X connect 80 0 78 1;
#X connect 81 0 79 0;
#X connect 81 1 80 0;
#X connect 82 0 23 0;
#X connect 83 0 82 0;
#X connect 84 0 83 0;
#X connect 84 1 85 0;
#X connect 85 0 82 1;
#X connect 87 0 86 0;
#X connect 88 0 86 1;
#X connect 89 0 87 0;
#X connect 89 1 88 0;
#X connect 90 0 23 0;
#X connect 91 0 90 0;
#X connect 92 0 91 0;
#X connect 92 1 93 0;
#X connect 93 0 90 1;
#X connect 95 0 94 0;
#X connect 96 0 94 1;
#X connect 97 0 95 0;
#X connect 97 1 96 0;
#X connect 98 0 23 0;
#X connect 99 0 98 0;
#X connect 100 0 99 0;
#X connect 100 1 101 0;
#X connect 101 0 98 1;
#X connect 103 0 102 0;
#X connect 104 0 102 1;
#X connect 105 0 103 0;
#X connect 105 1 104 0;
#X connect 106 0 23 0;
#X connect 107 0 106 0;
#X connect 108 0 107 0;
#X connect 108 1 109 0;
#X connect 109 0 106 1;
#X connect 111 0 110 0;
#X connect 112 0 110 1;
#X connect 113 0 111 0;
#X connect 113 1 112 0;
#X connect 114 0 23 0;
#X connect 115 0 114 0;
#X connect 116 0 115 0;
#X connect 116 1 117 0;
#X connect 117 0 114 1;
#X connect 119 0 118 0;
#X connect 120 0 118 1;
#X connect 121 0 119 0;
#X connect 121 1 120 0;
#X connect 122 0 23 0;
#X connect 123 0 122 0;
#X connect 124 0 123 0;
#X connect 124 1 125 0;
#X connect 125 0 122 1;
#X connect 126 0 38 0;
#X connect 126 1 34 0;
#X connect 126 2 35 0;
#X connect 126 3 36 0;
#X connect 126 4 37 0;
#X connect 126 5 60 0;
#X connect 126 6 68 0;
#X connect 126 7 76 0;
#X connect 126 8 84 0;
#X connect 126 9 92 0;
#X connect 126 10 100 0;
#X connect 126 11 108 0;
#X connect 126 12 116 0;
#X connect 126 13 124 0;
#X connect 126 14 22 0;
#X connect 127 0 0 0;
