#N canvas 1359 -164 942 977 10;
#X obj 170 -78 f;
#X obj 171 -14 hradio 22 0 0 10 clicks empty timeline 0 -8 0 10 -262144
-1 -1 4;
#X obj 217 -76 + 1;
#X obj 171 -124 tgl 15 0 empty empty empty 17 7 0 10 -262144 -1 -1
1 1;
#X obj 172 -102 metro 1000;
#N canvas 0 0 450 300 (subpatch) 0;
#X array ch1 10 float 23 black black;
#A 0 1 0 0 1 0 0 0 0 0 0;
#X coords 0 1 10 0 219 22 1;
#X restore 170 24 graph;
#X floatatom 35 159 5 0 0 0 - - -, f 5;
#X obj 171 -55 mod 10;
#X obj 36 204 sel 0;
#X msg 63 227 1;
#X floatatom 36 259 5 0 0 0 - - -, f 5;
#X msg 33 226 0;
#X obj 36 184 tabread ch1;
#N canvas 0 0 450 300 (subpatch) 0;
#X array ch2 10 float 23 black black;
#A 0 0 0 0 0 0 0 0 0 0 0;
#X coords 0 1 10 0 219 22 1;
#X restore 170 54 graph;
#N canvas 0 0 450 300 (subpatch) 0;
#X array ch3 10 float 23 black black;
#A 0 0 1 0 1 0 1 0 1 0 1;
#X coords 0 1 10 0 219 22 1;
#X restore 169 84 graph;
#N canvas 0 0 450 300 (subpatch) 0;
#X array ch4 10 float 23 black black;
#A 0 1 1 1 1 1 0.984848 0.969697 0.954545 0.954545 0.863636;
#X coords 0 1 10 0 219 22 1;
#X restore 170 114 graph;
#X obj 111 203 sel 0;
#X msg 138 226 1;
#X floatatom 111 258 5 0 0 0 - - -, f 5;
#X msg 108 225 0;
#X obj 187 204 sel 0;
#X msg 214 227 1;
#X floatatom 187 259 5 0 0 0 - - -, f 5;
#X msg 184 226 0;
#X obj 266 203 sel 0;
#X msg 293 226 1;
#X floatatom 266 258 5 0 0 0 - - -, f 5;
#X msg 263 225 0;
#X obj 111 183 tabread ch2;
#X obj 187 184 tabread ch3;
#X obj 266 183 tabread ch4;
#X obj 36 139 r clicks;
#X obj 259 526 import mrpeach;
#X msg 34 295 /ch1 \$1;
#X obj 116 341 s oscMsg;
#X msg 263 295 /ch4 \$1;
#X msg 107 294 /ch2 \$1;
#X msg 186 294 /ch3 \$1;
#X floatatom 266 -108 14 0 0 0 - - -, f 14;
#X obj 64 468 print;
#X obj 109 443 mrpeach/packOSC;
#N canvas 442 179 450 300 o.io.slipserial 0;
#X obj 73 221 mrpeach/slipdec 65536;
#X obj 73 89 mrpeach/slipenc 65536;
#X obj 337 62 loadbang;
#X obj 73 64 inlet;
#X obj 73 248 outlet;
#X msg 337 125 baud 115200;
#X obj 239 88 inlet;
#X msg 296 88 devicename /dev/tty.usbserial-A5002rKU \, pollintervall
1;
#X obj 73 177 comport;
#X obj 112 199 print errors;
#X connect 0 0 4 0;
#X connect 1 0 8 0;
#X connect 2 0 7 0;
#X connect 2 0 5 0;
#X connect 3 0 1 0;
#X connect 5 0 8 0;
#X connect 6 0 8 0;
#X connect 7 0 8 0;
#X connect 8 0 0 0;
#X connect 8 1 9 0;
#X restore 109 464 pd o.io.slipserial;
#X obj 31 374 tgl 15 0 empty empty empty 17 7 0 10 -262144 -1 -1 0
1;
#X msg 247 401 devices;
#X msg 307 395 close;
#X msg 227 428 devicename com8 \, baud 115200;
#X msg 33 400 /ch1 \$1;
#X obj 110 410 r oscMsg;
#X text 458 -84 install purr-data \; upload firmare to arduino set
\; comport (COM6 \, COM7 \, etc) \; idiot.io;
#X connect 0 0 2 0;
#X connect 0 0 7 0;
#X connect 2 0 0 1;
#X connect 3 0 4 0;
#X connect 4 0 0 0;
#X connect 6 0 12 0;
#X connect 6 0 28 0;
#X connect 6 0 29 0;
#X connect 6 0 30 0;
#X connect 7 0 1 0;
#X connect 8 0 11 0;
#X connect 8 1 9 0;
#X connect 9 0 10 0;
#X connect 10 0 33 0;
#X connect 11 0 10 0;
#X connect 12 0 8 0;
#X connect 16 0 19 0;
#X connect 16 1 17 0;
#X connect 17 0 18 0;
#X connect 18 0 36 0;
#X connect 19 0 18 0;
#X connect 20 0 23 0;
#X connect 20 1 21 0;
#X connect 21 0 22 0;
#X connect 22 0 37 0;
#X connect 23 0 22 0;
#X connect 24 0 27 0;
#X connect 24 1 25 0;
#X connect 25 0 26 0;
#X connect 26 0 35 0;
#X connect 27 0 26 0;
#X connect 28 0 16 0;
#X connect 29 0 20 0;
#X connect 30 0 24 0;
#X connect 31 0 6 0;
#X connect 33 0 34 0;
#X connect 35 0 34 0;
#X connect 36 0 34 0;
#X connect 37 0 34 0;
#X connect 38 0 4 1;
#X connect 40 0 41 0;
#X connect 42 0 46 0;
#X connect 43 0 41 1;
#X connect 44 0 41 1;
#X connect 45 0 41 1;
#X connect 46 0 40 0;
#X connect 46 0 39 0;
#X connect 47 0 40 0;
