#N canvas 23 80 1657 970 10;
#X obj 170 -78 f;
#X obj 490 70 hradio 50 0 0 20 clicks empty timeline -81 22 0 14 -262144
-131089 -1 0;
#X obj 217 -76 + 1;
#X obj 171 -124 tgl 15 0 empty empty empty 17 7 0 10 -262144 -1 -1
0 1;
#N canvas 0 0 450 300 (subpatch) 0;
#X array ch1 20 float 23 black black;
#A 0 1 0 1 0 1 0 1 0 0 0 0 0 1 0 0 1 0 0 0 0;
#X coords 0 1 20 0 1000 50 1;
#X restore 491 130 graph;
#X floatatom 35 159 5 0 0 0 - - -, f 5;
#X obj 36 204 sel 0;
#X msg 63 227 1;
#X floatatom 36 259 5 0 0 0 - - -, f 5;
#X msg 33 226 0;
#X obj 36 184 tabread ch1;
#N canvas 0 0 450 300 (subpatch) 0;
#X array ch2 20 float 23 black black;
#A 0 1 0 1 0 1 0 1 1 1 1 1 1 1 0 0 1 0 0 0 0;
#X coords 0 1 20 0 1000 50 1;
#X restore 492 189 graph;
#N canvas 0 0 450 300 (subpatch) 0;
#X array ch3 20 float 23 black black;
#A 0 0 1 0 1 0 1 0 1 0 1 0 0 0 0 1 1 1 0 0 0;
#X coords 0 1 20 0 1000 50 1;
#X restore 492 248 graph;
#N canvas 0 0 450 300 (subpatch) 0;
#X array ch4 20 float 23 black black;
#A 0 1 1 0 0 1 1 0 1 1 0 0 1 0 0 1 0 1 0 0 0;
#X coords 0 1 20 0 1000 50 1;
#X restore 492 308 graph;
#X obj 111 203 sel 0;
#X msg 138 226 1;
#X floatatom 111 258 5 0 0 0 - - -, f 5;
#X msg 108 225 0;
#X obj 187 204 sel 0;
#X msg 214 227 1;
#X floatatom 187 259 5 0 0 0 - - -, f 5;
#X msg 184 226 0;
#X obj 266 203 sel 0;
#X msg 293 226 1;
#X floatatom 266 258 5 0 0 0 - - -, f 5;
#X msg 263 225 0;
#X obj 111 183 tabread ch2;
#X obj 187 184 tabread ch3;
#X obj 266 183 tabread ch4;
#X obj 36 139 r clicks;
#X obj 259 526 import mrpeach;
#X msg 34 295 /ch1 \$1;
#X obj 116 341 s oscMsg;
#X msg 263 295 /ch4 \$1;
#X msg 107 294 /ch2 \$1;
#X msg 186 294 /ch3 \$1;
#X floatatom 266 -108 14 0 0 0 - - -, f 14;
#X obj 64 468 print;
#X obj 109 443 mrpeach/packOSC;
#N canvas 442 179 450 300 o.io.slipserial 0;
#X obj 73 221 mrpeach/slipdec 65536;
#X obj 73 89 mrpeach/slipenc 65536;
#X obj 337 62 loadbang;
#X obj 73 64 inlet;
#X obj 73 248 outlet;
#X msg 337 125 baud 115200;
#X obj 239 88 inlet;
#X msg 296 88 devicename /dev/tty.usbserial-A5002rKU \, pollintervall
1;
#X obj 73 177 comport;
#X obj 112 199 print errors;
#X connect 0 0 4 0;
#X connect 1 0 8 0;
#X connect 2 0 7 0;
#X connect 2 0 5 0;
#X connect 3 0 1 0;
#X connect 5 0 8 0;
#X connect 6 0 8 0;
#X connect 7 0 8 0;
#X connect 8 0 0 0;
#X connect 8 1 9 0;
#X restore 109 464 pd o.io.slipserial;
#X obj 63 369 tgl 15 0 empty empty empty 17 7 0 10 -262144 -1 -1 0
1;
#X msg 214 401 devices;
#X msg 267 401 close;
#X msg 65 395 /ch1 \$1;
#X obj 110 410 r oscMsg;
#X text 371 -113 install purr-data \; upload firmare to arduino
set \; comport (COM6 \, COM7 \, etc) \; idiot.io;
#X msg 227 428 devicename com4 \, baud 115200;
#N canvas 0 0 450 300 (subpatch) 0;
#X array ch5 20 float 23 black black;
#A 0 1 1 0 0 1 0.984848 0 1 1 0 0 0 1 1 0 0 1 0 0 0;
#X coords 0 1 20 0 1000 50 1;
#X restore 493 367 graph;
#X obj 171 -55 mod 20;
#X obj 172 -102 metro 10000;
#X text 64 522 write a text file;
#X msg 68 549 \; ch1 write ch1.txt \; ch2 write ch2.txt \; ch3 write
ch3.txt \; ch4 write ch4.txt \; ch5 write ch5.txt \;;
#X msg 889 603 clear;
#X obj 428 636 qlist, f 79;
#X obj 428 375 bng 46 250 50 0 empty empty empty 17 7 0 10 -262144
-1 -1;
#N canvas 599 297 450 346 dumpTable 1;
#X obj 158 72 inlet;
#X obj 158 243 outlet;
#X obj 201 135 until;
#X obj 201 165 f;
#X obj 229 165 + 1;
#X obj 245 135 0;
#X msg 203 215 add2 \$1;
#X obj 158 104 t b a b, f 15;
#X obj 302 73 inlet;
#X obj 202 190 tabread;
#X text 155 45 size;
#X text 301 47 table id;
#X msg 158 215 add;
#X connect 0 0 7 0;
#X connect 2 0 3 0;
#X connect 3 0 4 0;
#X connect 3 0 9 0;
#X connect 4 0 3 1;
#X connect 5 0 3 1;
#X connect 6 0 1 0;
#X connect 7 0 12 0;
#X connect 7 1 2 0;
#X connect 7 2 5 0;
#X connect 8 0 9 0;
#X connect 9 0 6 0;
#X connect 12 0 1 0;
#X restore 452 534 pd dumpTable;
#X msg 451 502 20;
#N canvas 0 133 450 346 dumpTable 1;
#X obj 158 72 inlet;
#X obj 158 243 outlet;
#X obj 201 135 until;
#X obj 201 165 f;
#X obj 229 165 + 1;
#X obj 245 135 0;
#X msg 203 215 add2 \$1;
#X obj 158 104 t b a b, f 15;
#X obj 302 73 inlet;
#X obj 202 190 tabread;
#X text 155 45 size;
#X text 301 47 table id;
#X msg 158 215 add;
#X connect 0 0 7 0;
#X connect 2 0 3 0;
#X connect 3 0 4 0;
#X connect 3 0 9 0;
#X connect 4 0 3 1;
#X connect 5 0 3 1;
#X connect 6 0 1 0;
#X connect 7 0 12 0;
#X connect 7 1 2 0;
#X connect 7 2 5 0;
#X connect 8 0 9 0;
#X connect 9 0 6 0;
#X connect 12 0 1 0;
#X restore 567 533 pd dumpTable;
#X msg 566 501 20;
#N canvas 0 133 450 346 dumpTable 0;
#X obj 158 72 inlet;
#X obj 158 243 outlet;
#X obj 201 135 until;
#X obj 201 165 f;
#X obj 229 165 + 1;
#X obj 245 135 0;
#X msg 203 215 add2 \$1;
#X obj 158 104 t b a b, f 15;
#X obj 302 73 inlet;
#X obj 202 190 tabread;
#X text 155 45 size;
#X text 301 47 table id;
#X msg 158 215 add;
#X connect 0 0 7 0;
#X connect 2 0 3 0;
#X connect 3 0 4 0;
#X connect 3 0 9 0;
#X connect 4 0 3 1;
#X connect 5 0 3 1;
#X connect 6 0 1 0;
#X connect 7 0 12 0;
#X connect 7 1 2 0;
#X connect 7 2 5 0;
#X connect 8 0 9 0;
#X connect 9 0 6 0;
#X connect 12 0 1 0;
#X restore 679 535 pd dumpTable;
#X msg 678 503 20;
#N canvas 0 133 450 346 dumpTable 0;
#X obj 158 72 inlet;
#X obj 158 243 outlet;
#X obj 201 135 until;
#X obj 201 165 f;
#X obj 229 165 + 1;
#X obj 245 135 0;
#X msg 203 215 add2 \$1;
#X obj 158 104 t b a b, f 15;
#X obj 302 73 inlet;
#X obj 202 190 tabread;
#X text 155 45 size;
#X text 301 47 table id;
#X msg 158 215 add;
#X connect 0 0 7 0;
#X connect 2 0 3 0;
#X connect 3 0 4 0;
#X connect 3 0 9 0;
#X connect 4 0 3 1;
#X connect 5 0 3 1;
#X connect 6 0 1 0;
#X connect 7 0 12 0;
#X connect 7 1 2 0;
#X connect 7 2 5 0;
#X connect 8 0 9 0;
#X connect 9 0 6 0;
#X connect 12 0 1 0;
#X restore 772 535 pd dumpTable;
#X msg 771 503 20;
#X msg 803 504 set ch1;
#X msg 710 504 set ch2;
#X msg 598 502 set ch3;
#X msg 483 503 set ch4;
#X obj 452 480 t b b;
#X obj 566 479 t b b;
#X obj 679 482 t b b;
#X obj 770 482 t b b;
#X obj 428 423 t b b b b b b, f 77;
#X msg 415 565 write temp.txt;
#X connect 0 0 2 0;
#X connect 0 0 48 0;
#X connect 2 0 0 1;
#X connect 3 0 49 0;
#X connect 5 0 10 0;
#X connect 5 0 26 0;
#X connect 5 0 27 0;
#X connect 5 0 28 0;
#X connect 6 0 9 0;
#X connect 6 1 7 0;
#X connect 7 0 8 0;
#X connect 8 0 31 0;
#X connect 9 0 8 0;
#X connect 10 0 6 0;
#X connect 14 0 17 0;
#X connect 14 1 15 0;
#X connect 15 0 16 0;
#X connect 16 0 34 0;
#X connect 17 0 16 0;
#X connect 18 0 21 0;
#X connect 18 1 19 0;
#X connect 19 0 20 0;
#X connect 20 0 35 0;
#X connect 21 0 20 0;
#X connect 22 0 25 0;
#X connect 22 1 23 0;
#X connect 23 0 24 0;
#X connect 24 0 33 0;
#X connect 25 0 24 0;
#X connect 26 0 14 0;
#X connect 27 0 18 0;
#X connect 28 0 22 0;
#X connect 29 0 5 0;
#X connect 31 0 32 0;
#X connect 33 0 32 0;
#X connect 34 0 32 0;
#X connect 35 0 32 0;
#X connect 36 0 49 1;
#X connect 38 0 39 0;
#X connect 40 0 43 0;
#X connect 41 0 39 1;
#X connect 42 0 39 1;
#X connect 43 0 38 0;
#X connect 43 0 37 0;
#X connect 44 0 38 0;
#X connect 46 0 39 1;
#X connect 48 0 1 0;
#X connect 49 0 0 0;
#X connect 52 0 53 0;
#X connect 54 0 71 0;
#X connect 55 0 53 0;
#X connect 56 0 55 0;
#X connect 57 0 53 0;
#X connect 58 0 57 0;
#X connect 59 0 53 0;
#X connect 60 0 59 0;
#X connect 61 0 53 0;
#X connect 62 0 61 0;
#X connect 63 0 61 1;
#X connect 64 0 59 1;
#X connect 65 0 57 1;
#X connect 66 0 55 1;
#X connect 67 0 56 0;
#X connect 67 1 66 0;
#X connect 68 0 58 0;
#X connect 68 1 65 0;
#X connect 69 0 60 0;
#X connect 69 1 64 0;
#X connect 70 0 62 0;
#X connect 70 1 63 0;
#X connect 71 0 72 0;
#X connect 71 1 67 0;
#X connect 71 2 68 0;
#X connect 71 3 69 0;
#X connect 71 4 70 0;
#X connect 71 5 52 0;
#X connect 72 0 53 0;
